<?xml version="1.0" encoding="UTF-8"?>
<!-- Generator: Adobe Illustrator 25.4.1, SVG Export Plug-In . SVG Version: 6.00 Build 0)  -->
<svg xmlns="http://www.w3.org/2000/svg" xmlns:xlink="http://www.w3.org/1999/xlink" version="1.1" id="Livello_1" x="0px" y="0px" viewBox="0 0 243.5 243.5" style="enable-background:new 0 0 243.5 243.5;" xml:space="preserve">
<style type="text/css">
	.st0{fill:#282828;}
	.st1{fill:#2AB33B;}
	.st2{fill:#2A7A52;}
	.st3{fill:#278F42;}
	.st4{fill:#265E30;}
	.st5{fill:#007021;}
	.st6{fill:#29AB5D;}
	.st7{fill:#D90368;}
	.st8{fill:#820363;}
	.st9{fill:#FB8B24;}
	.st10{fill:#43A329;}
	.st11{fill:#34D66C;}
</style>
<g>
	<circle class="st0" cx="123.5" cy="82.1" r="7.3"></circle>
</g>
<g>
	<path class="st1" d="M21.9,191.5c12.3,17.6,29.2,31.8,48.9,40.9v-40.9H21.9z"></path>
	<path class="st2" d="M70.8,108.9H0.7c-0.4,4.2-0.7,8.5-0.7,12.8c0,24,7,46.5,19,65.3h51.8V108.9z"></path>
	<path class="st3" d="M199.7,28.2C181.3,12.9,158.3,2.8,133,0.5v27.7H199.7z"></path>
	<polygon class="st4" points="1.2,104.5 1.2,104.5 1.2,104.5  "></polygon>
	<path class="st5" d="M100.1,14.8c8,7.7,18,13.9,28.5,17.6V0.2c-2.3-0.1-4.6-0.2-6.9-0.2C111.1,0,100.8,1.4,91,3.9   C93.5,7.7,96.6,11.4,100.1,14.8z"></path>
</g>
<path class="st4" d="M73.3,76.1c-14-4.3-26.6-13.1-35.7-24.8c-2.6-3.3-4.8-6.8-6.8-10.5C16.8,56.5,6.9,75.7,2.5,97  c-0.5,2.5-0.9,5-1.3,7.5c0,0,0,0,0,0h69.6l0-12.4C70.8,86.7,71.7,81.3,73.3,76.1z"></path>
<path class="st6" d="M120.4,224.3c-7.3,7.5-16.8,12.9-27.7,15.7c9.3,2.3,19.1,3.5,29.1,3.5c54.2,0,100.2-35.5,115.9-84.4H136.4v20.1  C136.9,197.5,131.3,213.1,120.4,224.3z"></path>
<path d="M136.2,103.1v45.1c9.2-0.8,17.9-3.8,25.6-8.9L136.2,103.1z"></path>
<path d="M139.1,96.4l27.6,39c5.5-4.7,10.1-10.4,13.4-16.9c3.6-6.9,5.5-14.4,5.9-22.2H139.1z"></path>
<g>
	<path class="st7" d="M97.9,93.8c0-19.5,15.8-35.4,35.4-35.4c18.3,0,33.4,13.9,35.2,31.8H186c-0.9-13.3-6.5-25.7-16-35.1   c-10.3-10.2-23.9-15.8-38.4-15.8c-7.2,0-14.3,1.5-21,4.3c-6.5,2.8-12.3,6.7-17.4,11.7C83,65.3,77.1,78.7,77.1,92.1l0,94   c13.6-0.6,26.1-5.3,35.5-13.3c11.5-9.7,17.5-23.9,17.5-41V129C112,127.4,97.9,112.3,97.9,93.8z"></path>
</g>
<g>
	<path class="st8" d="M116.6,177.6c-10.5,8.9-24.5,14.1-39.6,14.8V236c15.7-0.7,29.4-6.3,38.9-16c9.7-10,14.7-24.1,14.2-40.6l0-0.1   v-18.9C126.8,166.9,122.3,172.7,116.6,177.6z"></path>
</g>
<path class="st9" d="M28.3,4.2v1.8c0,15.2,4.9,29.5,14.1,41.4c8.4,10.8,20,18.8,32.9,22.7c4.2-9.9,11.4-18.8,20.2-25.3  c6.7-5,14.2-8.4,22.1-10.3c-8-3.9-15.6-9.2-21.9-15.3c-4.9-4.7-8.9-9.8-11.9-15v1.8c0,7.1,1.1,14.2,3.3,20.9l2.6,8.1l-7.2-4.4  C71.1,23.6,62,14.3,56.1,4.2v1.8c0,7.1,1.1,14.2,3.3,20.9L62,35l-7.2-4.4C43.4,23.6,34.2,14.3,28.3,4.2z"></path>
<g>
	<path class="st10" d="M205.1,33h-71.7c15.5,0.5,30,6.7,41,17.6c10.9,10.9,17.3,25.2,17.9,40.5h47.3C233.8,68.5,221.6,48.5,205.1,33   z"></path>
</g>
<g>
	<path class="st11" d="M243.5,121.7c0-9-1-17.8-2.8-26.3h-48.3c-0.2,9.1-2.5,17.8-6.6,25.9c-4.2,8.2-10.3,15.5-17.7,21   c-9.3,6.9-20.1,11-31.6,11.9h102.7C242,144,243.5,133.1,243.5,121.7z"></path>
</g>
</svg>
